# xmcd
#
# Track frame offsets:
# 183
# 19973
# 37543
# 55318
# 78445
# 94420
# 108730
# 127375
# 148730
# 165983
# 183815
# 199300
# 216258
# 231228
# 248655
#
# Disc length: 3533 seconds
#
#
# Revision: 7
# Processed by: cddbd v1.5.2PL0 Copyright (c) Steve Scherf et al.
# Submitted via: FreeRIP 2.92 
#
DISCID=d50dcb0f
DTITLE=Salt 'N' Pepa - Very Necessary
DYEAR=1992
DGENRE=Hip-Hop
TTITLE0=Groove Me
TTITLE1=No One Does It Better
TTITLE2=Somebody's Gettin' On My Nerves
TTITLE3=Whatta Man
TTITLE4=None Of Your Business
TTITLE5=Step
TTITLE6=Shoop
TTITLE7=Heaven Or Hell
TTITLE8=Big Shot
TTITLE9=Sexy Noises Turn Me On
TTITLE10=Somma Time Man
TTITLE11=Break Of Dawn
TTITLE12=Psa We Talk
TTITLE13=Shoop (Danny D's Radio Mix)
TTITLE14=Start Me Up
EXTD=YEAR: 1992
EXTT0=
EXTT1=
EXTT2=
EXTT3=
EXTT4=
EXTT5=
EXTT6=
EXTT7=
EXTT8=
EXTT9=
EXTT10=
EXTT11=
EXTT12=
EXTT13=
EXTT14=
PLAYORDER=
